<svg width="64" height="57" viewBox="0 0 64 57" fill="none" xmlns="http://www.w3.org/2000/svg">
<g filter="url(#filter0_d_141_18)">
<path fill-rule="evenodd" clip-rule="evenodd" d="M37.664 10.8065C37.664 14.0076 35.0924 16.6129 31.9327 16.6129C28.7731 16.6129 26.2015 14.0076 26.2015 10.8065C26.2015 7.60533 28.7731 5 31.9327 5C35.0924 5 37.664 7.60533 37.664 10.8065ZM34.6738 10.8065C34.6738 9.27405 33.4453 8.02945 31.9327 8.02945C30.4202 8.02945 29.1917 9.27405 29.1917 10.8065C29.1917 12.3388 30.4202 13.5834 31.9327 13.5834C33.4453 13.5834 34.6738 12.3388 34.6738 10.8065ZM56.8887 18.9658C57.6238 19.5035 58.0374 20.372 57.9975 21.2909L58 21.2884C57.4194 34.6306 50.9431 42.8 38.7579 45.5871C39.2065 47.0993 41.0363 47.4783 41.1176 47.4951C41.119 47.4954 41.1198 47.4956 41.1202 47.4957C41.7955 47.6194 42.244 48.2757 42.1219 48.9624C42.0123 49.5734 41.489 50 40.8984 50C40.8237 50 40.7489 49.9924 40.6742 49.9798C39.3759 49.74 37.1208 48.7074 36.3981 46.4278C36.3787 46.4475 36.3593 46.4673 36.3398 46.4871C36.2621 46.5662 36.1844 46.6454 36.1066 46.7181C34.7311 48.0157 33.3282 48.6746 31.9352 48.6746C30.5423 48.6746 29.1394 48.0157 27.7639 46.7181C27.7452 46.7004 27.7265 46.6815 27.7078 46.6626C27.6891 46.6436 27.6704 46.6247 27.6517 46.607C26.8693 48.763 24.6964 49.7476 23.4355 49.9798C23.3608 49.9924 23.286 50 23.2113 50C22.6207 50 22.0974 49.5708 21.9878 48.9624C21.8632 48.2783 22.3117 47.6194 22.9895 47.4957C22.99 47.4955 22.9915 47.4952 22.9939 47.4947C23.0968 47.4729 24.8893 47.0938 25.3443 45.6098C13.0943 42.8429 6.58561 34.6685 6.00252 21.2909C5.96265 20.372 6.3763 19.5035 7.11139 18.9658C7.85646 18.4205 8.81582 18.2943 9.678 18.625L21.7685 23.2701C20.9536 20.5335 20.7967 17.0194 23.2511 14.5327C23.8367 13.9419 24.7836 13.9419 25.3667 14.5327C25.9498 15.126 25.9498 16.0853 25.3667 16.676C23.6324 18.4356 24.1756 21.2959 24.9057 23.2045C26.7871 21.6191 29.2615 20.6547 31.9327 20.6547C34.604 20.6547 37.046 21.6065 38.9249 23.1742C39.65 21.2631 40.1783 18.4255 38.4514 16.676C37.8683 16.0828 37.8659 15.1234 38.4514 14.5327C39.037 13.9419 39.9839 13.9419 40.567 14.5327C43.0439 17.0446 42.8595 20.6017 42.0248 23.3509L54.3221 18.625C55.1842 18.2943 56.1436 18.4205 56.8887 18.9658ZM34.9778 26.8474L37.0236 25.5069H37.0211C35.6606 24.3708 33.8789 23.6816 31.9303 23.6816C29.9816 23.6816 28.1999 24.3734 26.8394 25.5069L28.8852 26.8474C30.7367 28.0592 33.1263 28.0592 34.9778 26.8474ZM13.5877 31.7021L10.8417 30.6469H10.8392C13.1815 36.5568 17.7092 40.4017 24.517 42.2875C24.494 42.2444 24.4701 42.2012 24.4461 42.1578C24.4154 42.1022 24.3844 42.0463 24.355 41.9896C22.4787 38.4073 21.2178 33.9969 21.2178 31.0129C21.2178 29.4654 21.5741 27.9986 22.2045 26.6783L9.01268 21.609C9.11983 23.5276 9.35655 25.3175 9.72784 26.9787L14.6493 28.8696C15.4217 29.1675 15.808 30.041 15.5164 30.8236C15.2897 31.4269 14.7215 31.8006 14.1185 31.8006C13.9416 31.8006 13.7622 31.7703 13.5877 31.7021ZM24.208 31.0129C24.208 33.0502 25.0802 36.9103 26.9964 40.5683L26.9989 40.5658C27.8735 42.237 28.8428 43.5952 29.7997 44.499C30.0165 44.7035 30.2308 44.8802 30.4376 45.0317V30.3894C29.3736 30.195 28.337 29.7936 27.3976 29.1776L25.0702 27.6527C24.5195 28.66 24.208 29.8037 24.208 31.0129ZM33.4279 45.0342C33.6347 44.8828 33.849 44.706 34.0658 44.5016L34.0683 44.5041C35.0251 43.6003 35.9945 42.2396 36.8691 40.5708C38.7853 36.9153 39.6575 33.0553 39.6575 31.0154C39.6575 29.8037 39.346 28.6626 38.7953 27.6553L36.4679 29.1801C35.526 29.7961 34.4919 30.1975 33.4279 30.3919V45.0342ZM39.324 42.3271C46.2174 40.4561 50.7989 36.5989 53.1559 30.6443L50.4098 31.6996C50.2354 31.7652 50.056 31.798 49.8791 31.798C49.276 31.798 48.7079 31.4269 48.4811 30.8211C48.1871 30.0384 48.5758 29.1624 49.3483 28.8671L54.2697 26.9762C54.641 25.315 54.8802 23.5251 54.9849 21.6065L41.6784 26.7187C42.2989 28.0289 42.6452 29.4805 42.6452 31.0104C42.6452 33.9919 41.3843 38.4048 39.508 41.9871C39.4607 42.0789 39.4118 42.1676 39.3627 42.2569C39.3498 42.2802 39.3369 42.3036 39.324 42.3271Z" fill="black"/>
</g>
<defs>
<filter id="filter0_d_141_18" x="-0.00012207" y="0" width="64.0002" height="57" filterUnits="userSpaceOnUse" color-interpolation-filters="sRGB">
<feFlood flood-opacity="0" result="BackgroundImageFix"/>
<feColorMatrix in="SourceAlpha" type="matrix" values="0 0 0 0 0 0 0 0 0 0 0 0 0 0 0 0 0 0 127 0" result="hardAlpha"/>
<feOffset dy="1"/>
<feGaussianBlur stdDeviation="3"/>
<feComposite in2="hardAlpha" operator="out"/>
<feColorMatrix type="matrix" values="0 0 0 0 0.808333 0 0 0 0 0.808333 0 0 0 0 0.808333 0 0 0 0.51 0"/>
<feBlend mode="normal" in2="BackgroundImageFix" result="effect1_dropShadow_141_18"/>
<feBlend mode="normal" in="SourceGraphic" in2="effect1_dropShadow_141_18" result="shape"/>
</filter>
</defs>
</svg>
