<svg width="80" height="80" viewBox="0 0 80 80" fill="none" xmlns="http://www.w3.org/2000/svg">
<g clip-path="url(#clip0_141_22)">
<rect width="80" height="80" rx="4" fill="white"/>
<g filter="url(#filter0_d_141_22)">
<path fill-rule="evenodd" clip-rule="evenodd" d="M57.383 33.1613C57.383 42.6224 49.7177 50.3226 40.2994 50.3226C30.8812 50.3226 23.2158 42.6224 23.2158 33.1613C23.2158 23.7002 30.8812 16 40.2994 16C49.7177 16 57.383 23.7002 57.383 33.1613ZM48.4698 33.1613C48.4698 28.6322 44.808 24.9537 40.2994 24.9537C35.7908 24.9537 32.129 28.6322 32.129 33.1613C32.129 37.6904 35.7908 41.3689 40.2994 41.3689C44.808 41.3689 48.4698 37.6904 48.4698 33.1613ZM114.687 57.2767C116.878 58.866 118.111 61.4327 117.993 64.1486L118 64.1412C116.269 103.575 96.9649 127.72 60.6437 135.957C61.9806 140.427 67.4346 141.547 67.6774 141.597C67.6814 141.598 67.684 141.598 67.6851 141.598C69.698 141.964 71.035 143.904 70.671 145.933C70.3442 147.739 68.7844 149 67.0241 149C66.8012 149 66.5784 148.978 66.3556 148.94C62.4858 148.231 55.7638 145.18 53.6097 138.442C53.5518 138.5 53.4939 138.559 53.436 138.617C53.2043 138.851 52.9725 139.085 52.7407 139.3C48.6407 143.135 44.4589 145.083 40.3068 145.083C36.1548 145.083 31.973 143.135 27.873 139.3C27.8172 139.248 27.7615 139.192 27.7058 139.136C27.6501 139.08 27.5944 139.024 27.5387 138.972C25.2064 145.344 18.7295 148.254 14.9712 148.94C14.7483 148.978 14.5255 149 14.3027 149C12.5423 149 10.9825 147.732 10.6557 145.933C10.2843 143.911 11.6213 141.964 13.6416 141.598C13.643 141.598 13.6475 141.597 13.6549 141.595C13.9619 141.531 19.3046 140.41 20.6607 136.025C-15.8536 127.847 -35.2546 103.687 -36.9926 64.1486C-37.1115 61.4327 -35.8785 58.866 -33.6873 57.2767C-31.4665 55.665 -28.6068 55.2919 -26.0368 56.2694L10.0021 69.9984C7.57322 61.9102 7.10528 51.5239 14.4215 44.1744C16.167 42.4284 18.9895 42.4284 20.7276 44.1744C22.4656 45.9278 22.4656 48.7632 20.7276 50.5091C15.5579 55.7098 17.1772 64.1636 19.3535 69.8044C24.9613 65.1186 32.337 62.2684 40.2994 62.2684C48.2618 62.2684 55.5409 65.0813 61.1414 69.7149C63.3028 64.0666 64.8775 55.6799 59.7301 50.5091C57.992 48.7557 57.9846 45.9204 59.7301 44.1744C61.4756 42.4284 64.2981 42.4284 66.0362 44.1744C73.4193 51.5985 72.8696 62.1117 70.3814 70.2372L107.037 56.2694C109.607 55.2919 112.466 55.665 114.687 57.2767ZM49.376 80.5713L55.4741 76.6092H55.4666C51.4112 73.2516 46.1004 71.2146 40.292 71.2146C34.4836 71.2146 29.1728 73.2591 25.1173 76.6092L31.2154 80.5713C36.7341 84.1527 43.8572 84.1527 49.376 80.5713ZM-14.3829 94.9196L-22.5681 91.8007H-22.5756C-15.5936 109.268 -2.09757 120.632 18.1948 126.205C18.1264 126.078 18.0551 125.95 17.9835 125.822C17.8918 125.658 17.7995 125.493 17.712 125.325C12.1189 114.737 8.36055 101.702 8.36055 92.8826C8.36055 88.3088 9.42271 83.9737 11.3019 80.0713L-28.02 65.0888C-27.7006 70.7595 -26.995 76.0496 -25.8883 80.9592L-11.2187 86.5479C-8.91614 87.4283 -7.76485 90.01 -8.63389 92.323C-9.3098 94.1063 -11.0033 95.2106 -12.8008 95.2106C-13.3282 95.2106 -13.8629 95.121 -14.3829 94.9196ZM17.2737 92.8826C17.2737 98.904 19.8734 110.313 25.5853 121.124L25.5927 121.117C28.1998 126.056 31.0891 130.07 33.9413 132.742C34.5876 133.346 35.2263 133.868 35.8428 134.316V91.0396C32.6712 90.4651 29.5813 89.2787 26.7811 87.4582L19.8437 82.9515C18.2022 85.9286 17.2737 89.3086 17.2737 92.8826ZM44.756 134.323C45.3725 133.876 46.0113 133.353 46.6575 132.749L46.6649 132.756C49.5171 130.085 52.4065 126.064 55.0136 121.132C60.7254 110.327 63.3251 98.9189 63.3251 92.8901C63.3251 89.3086 62.3966 85.936 60.7551 82.9589L53.8177 87.4656C51.0101 89.2862 47.9276 90.4726 44.756 91.0471V134.323ZM62.3311 126.322C82.8785 120.793 96.5351 109.392 103.561 91.7932L95.3754 94.9121C94.8554 95.1061 94.3206 95.2031 93.7933 95.2031C91.9958 95.2031 90.3023 94.1063 89.6264 92.3155C88.7499 90.0025 89.9086 87.4134 92.2112 86.5404L106.881 80.9518C107.988 76.0422 108.701 70.752 109.013 65.0813L69.3489 80.1907C71.1984 84.0632 72.2308 88.3535 72.2308 92.8752C72.2308 101.687 68.4725 114.73 62.8794 125.317C62.7384 125.589 62.5928 125.851 62.4462 126.115C62.4078 126.184 62.3695 126.253 62.3311 126.322Z" fill="black"/>
</g>
</g>
<defs>
<filter id="filter0_d_141_22" x="-43.0005" y="11" width="167.001" height="145" filterUnits="userSpaceOnUse" color-interpolation-filters="sRGB">
<feFlood flood-opacity="0" result="BackgroundImageFix"/>
<feColorMatrix in="SourceAlpha" type="matrix" values="0 0 0 0 0 0 0 0 0 0 0 0 0 0 0 0 0 0 127 0" result="hardAlpha"/>
<feOffset dy="1"/>
<feGaussianBlur stdDeviation="3"/>
<feComposite in2="hardAlpha" operator="out"/>
<feColorMatrix type="matrix" values="0 0 0 0 0.808333 0 0 0 0 0.808333 0 0 0 0 0.808333 0 0 0 0.51 0"/>
<feBlend mode="normal" in2="BackgroundImageFix" result="effect1_dropShadow_141_22"/>
<feBlend mode="normal" in="SourceGraphic" in2="effect1_dropShadow_141_22" result="shape"/>
</filter>
<clipPath id="clip0_141_22">
<rect width="80" height="80" rx="4" fill="white"/>
</clipPath>
</defs>
</svg>
